<svg width="33" height="33" viewBox="0 0 33 33" fill="none" xmlns="http://www.w3.org/2000/svg">
<path fill-rule="evenodd" clip-rule="evenodd" d="M16.5 0.39759C7.62101 0.39759 0.39759 7.62101 0.39759 16.5C0.39759 25.379 7.62101 32.6024 16.5 32.6024C25.379 32.6024 32.6024 25.379 32.6024 16.5C32.6024 7.62101 25.379 0.39759 16.5 0.39759ZM16.5 33C7.40194 33 0 25.5981 0 16.5C0 7.40194 7.40194 0 16.5 0C25.5981 0 33 7.40194 33 16.5C33 25.5981 25.5981 33 16.5 33Z" fill="#FFFBF2"/>
<path fill-rule="evenodd" clip-rule="evenodd" d="M16.7069 16.6201H12.6612V23H11V9H12.6612V15.16H16.6676L20.4007 9H22.2964L18.1532 15.88L23 23H20.7521L16.7069 16.6201Z" fill="#FFFBF2"/>
</svg>
