<?xml version="1.0" encoding="utf-8"?>
<!-- Generator: Adobe Illustrator 24.1.3, SVG Export Plug-In . SVG Version: 6.00 Build 0)  -->
<svg version="1.1" id="Layer_1" xmlns="http://www.w3.org/2000/svg" xmlns:xlink="http://www.w3.org/1999/xlink" x="0px" y="0px"
	 viewBox="0 0 440 90" style="enable-background:new 0 0 440 90;" xml:space="preserve">
<style type="text/css">
	.st0{fill:#FFFFFF;}
</style>
<g>
	<g>
		<path class="st0" d="M127.3,46.4h-8.7v13.5H115V30.2h3.6v13h8.6l8-13h4.1l-8.9,14.6l10.4,15.1H136L127.3,46.4z"/>
		<path class="st0" d="M171.9,30.2v29.7h-3.4l-17-23.6v23.6H148V30.2h3.4l17,23.9V30.2H171.9z"/>
		<path class="st0" d="M208,45.1c0,8.8-5.8,15.2-14.3,15.2c-8.6,0-14.3-6.4-14.3-15.2c0-8.9,5.8-15.4,14.3-15.4
			C202.2,29.7,208,36.2,208,45.1z M183,45.1c0,7,4.2,12,10.6,12c6.4,0,10.6-5,10.6-12c0-7.1-4.2-12.2-10.6-12.2
			C187.2,32.9,183,38,183,45.1z"/>
		<path class="st0" d="M235.2,33.3h-10.1v26.6h-3.6V33.3h-10.1v-3.1h23.7V33.3z"/>
		<path class="st0" d="M264.4,33.3h-10.1v26.6h-3.6V33.3h-10.1v-3.1h23.7V33.3z"/>
		<path class="st0" d="M275.1,33.3v10H291v3.1h-15.9v10.4h17v3.1h-20.5V30.2h20.5v3.1H275.1z"/>
		<path class="st0" d="M325,45.1c0,8.6-5.9,14.8-15.2,14.8h-9.3V30.2h9.3C319.1,30.2,325,36.5,325,45.1z M321.2,45.1
			c0-6.8-4.2-11.7-11.1-11.7h-6.1v23.5h6.1C317.1,56.8,321.2,51.9,321.2,45.1z"/>
	</g>
</g>
</svg>
