<svg width="43" height="43" viewBox="0 0 43 43" fill="none" xmlns="http://www.w3.org/2000/svg">
<path fill-rule="evenodd" clip-rule="evenodd" d="M21.5 0.518072C9.93041 0.518072 0.518072 9.93041 0.518072 21.5C0.518072 33.0696 9.93041 42.4819 21.5 42.4819C33.0696 42.4819 42.4819 33.0696 42.4819 21.5C42.4819 9.93041 33.0696 0.518072 21.5 0.518072M21.5 43C9.64495 43 0 33.355 0 21.5C0 9.64495 9.64495 0 21.5 0C33.355 0 43 9.64495 43 21.5C43 33.355 33.355 43 21.5 43" fill="#2B4429"/>
<path fill-rule="evenodd" clip-rule="evenodd" d="M21.1336 21.7972H16.0765V30H14V12H16.0765V19.92H21.0845L25.7509 12H28.1206L22.9415 20.8457L29 30H26.1901L21.1336 21.7972Z" fill="#2B4429"/>
</svg>
